<svg width="2121" height="1841" viewBox="0 0 2121 1841" fill="none" xmlns="http://www.w3.org/2000/svg">
<path d="M1659.54 1244.93C1734.35 1363.44 1755.82 1457.44 1775.91 1251.58C1780.68 1122.45 1771.06 981.826 1752.9 909.973C1745.1 924.191 1730.06 949.348 1715.87 970.638C1726.16 997.01 1758.27 1048.39 1749.71 1146.87C1730.44 1206.81 1703.78 1241.06 1668.36 1196.11C1612.69 1125.46 1589.14 1127.6 1586.09 1132.5C1614.46 1176.09 1642.08 1217.26 1659.54 1244.93Z" fill="#35F036"/>
<path d="M1016.27 997.922C876.682 1010.36 788.924 1050.33 940.382 909.456C1031.91 834.081 1129.93 767.503 1199.52 733.689C1188.81 757.238 1180.25 778.646 1175.97 791.491C985.434 851.434 979.012 945.631 996.138 956.335C1000.42 967.039 1105.32 962.757 1126.73 971.32C1124.59 975.602 1124.59 977.743 1122.45 986.306C1072.91 989.977 1047.52 995.137 1016.27 997.922Z" fill="#35F036"/>
<path d="M1342.95 1273.18C1175.11 1401.63 998.992 1409.48 931.913 1397.34C980.438 1373.8 1093.33 1317.28 1156.7 1279.6C1415.74 1134.02 1570.31 917.8 1623.4 853.575C1697.73 763.66 1809.65 515.325 1820.36 493.917C1843.9 560.282 1773.26 776.505 1747.57 832.167C1649.09 1054.81 1437.15 1204.67 1342.95 1273.18Z" fill="#35F036"/>
<path d="M492.222 1683.55C642.276 1466.41 688.261 1451.18 766.676 1443.5C513.105 1637.84 826.767 1570.5 906.034 1412.93C856.527 1611.12 632.957 1622.4 492.222 1683.55Z" fill="#35F036"/>
<path d="M289.107 1415.28C539.605 1468.39 698.487 1478.89 766.748 1443.76C267.961 1401.31 703.851 1290.26 879.403 1333.09C719.555 1236.32 437.117 1375.85 289.107 1415.28Z" fill="#35F036"/>
<path d="M1619.12 714.422C1480.39 957.619 1214.5 1149.01 1071.07 1232.5C1150.28 1093.35 1158.84 1003.43 1184.53 913.518C1212.36 806.477 1197.38 834.308 1278.73 665.182C1439.29 389.016 1589.15 256.285 1646.95 215.61C1711.17 159.948 1762.55 262.708 1777.54 296.961C1781.82 414.706 1670.5 630.929 1619.12 714.422Z" fill="#35F036"/>
</svg>
