<svg width="496" height="110" viewBox="0 0 496 110" fill="none" xmlns="http://www.w3.org/2000/svg">
<rect x="0.75" y="0.75" width="494.5" height="108.5" fill="black" stroke="#35F036" stroke-width="1.5"/>
<path d="M122.069 44.8536C125.802 45.0936 127.669 46.7736 127.669 49.8936C127.669 50.4536 127.602 51.0536 127.469 51.6936L123.509 70.2136H109.589L114.029 49.2936H108.829L104.389 70.2136H90.4686L94.9086 49.2936H89.6686L85.2286 70.2136H71.3086L76.7086 44.8536H122.069ZM145.597 44.8536C146.611 44.8536 147.117 45.3469 147.117 46.3336C147.117 46.9202 146.877 47.4536 146.397 47.9336C145.917 48.4136 145.384 48.6536 144.797 48.6536H134.877C133.864 48.6536 133.357 48.1469 133.357 47.1336C133.357 46.5469 133.597 46.0269 134.077 45.5736C134.557 45.0936 135.091 44.8536 135.677 44.8536H145.597ZM129.277 70.2136L132.957 52.8936H144.877L141.197 70.2136H129.277ZM147.129 70.2136L152.529 44.8536H164.449L159.049 70.2136H147.129ZM194.554 70.2136H182.634L180.154 58.6136H178.834L176.354 70.2136H164.434L169.834 44.8536H181.754L179.634 54.7736H181.434L185.354 50.0936H197.154L191.634 56.6536L194.554 70.2136ZM220.789 52.9736H232.669L218.549 78.8136H206.629L211.309 70.2536H201.989C199.296 70.0936 197.949 68.8802 197.949 66.6136C197.949 66.2136 198.003 65.7869 198.109 65.3336L200.749 52.9336H213.229L210.429 66.2136H213.429L220.789 52.9736ZM290.809 70.2136H245.449L250.849 44.8536H264.769L260.329 65.7736H265.529L270.009 44.8536H283.889L279.449 65.7736H284.689L289.129 44.8536H303.049L299.129 63.3736C298.516 66.2002 296.943 68.1869 294.409 69.3336C293.369 69.8136 292.169 70.1069 290.809 70.2136ZM320.268 52.8936L333.588 52.8536C336.148 53.0136 337.428 54.1736 337.428 56.3336C337.428 56.7069 337.375 57.1202 337.268 57.5736L334.588 70.2136H322.628L325.508 56.6936H319.468L316.588 70.2136H304.668L310.068 44.8536H321.988L320.268 52.8936ZM368.283 70.2136H342.883C340.323 70.0536 339.043 68.9069 339.043 66.7736C339.043 66.3736 339.083 65.9602 339.163 65.5336L339.723 63.0136C340.15 61.0669 341.216 59.6936 342.923 58.8936C343.643 58.5736 344.47 58.3736 345.403 58.2936H358.883L359.243 56.6936H344.203C343.19 56.6936 342.683 56.1869 342.683 55.1736C342.683 54.5869 342.923 54.0536 343.403 53.5736C343.883 53.0936 344.416 52.8536 345.003 52.8536H367.283C369.843 53.0136 371.123 54.1736 371.123 56.3336C371.123 56.7069 371.07 57.1069 370.963 57.5336L368.283 70.2136ZM351.843 62.1336L350.923 66.4136H357.163L358.083 62.1336H351.843ZM372.715 70.2136L378.115 44.8536H390.035L384.635 70.2136H372.715ZM420.42 64.7336H402.26L401.9 66.4136H414.58C415.593 66.4136 416.1 66.9069 416.1 67.8936C416.1 68.4802 415.86 69.0136 415.38 69.4936C414.9 69.9736 414.366 70.2136 413.78 70.2136H393.86C391.3 70.0536 390.02 68.9069 390.02 66.7736C390.02 66.4002 390.06 65.9869 390.14 65.5336L391.86 57.5336C392.26 55.5869 393.326 54.2269 395.06 53.4536C395.78 53.1336 396.606 52.9336 397.54 52.8536H418.26C420.82 53.0136 422.1 54.1736 422.1 56.3336C422.1 56.7069 422.046 57.1069 421.94 57.5336L420.42 64.7336ZM409.3 60.8936L410.22 56.6936H403.98L403.06 60.8936H409.3Z" fill="white"/>
</svg>
